<?xml version="1.0" encoding="UTF-8"?>
<!DOCTYPE svg PUBLIC "-//W3C//DTD SVG 1.1//EN" "http://www.w3.org/Graphics/SVG/1.1/DTD/svg11.dtd">
<svg xmlns="http://www.w3.org/2000/svg" version="1.1" width="512px" height="512px" style="shape-rendering:geometricPrecision; text-rendering:geometricPrecision; image-rendering:optimizeQuality; fill-rule:evenodd; clip-rule:evenodd" xmlns:xlink="http://www.w3.org/1999/xlink">
<g><path style="opacity:0.992" fill="#3480ff" d="M 322.5,95.5 C 322.5,124.5 322.5,153.5 322.5,182.5C 311.784,186.564 301.784,191.897 292.5,198.5C 291.833,169.167 291.167,139.833 290.5,110.5C 298.344,99.5791 309.011,94.5791 322.5,95.5 Z"/></g>
<g><path style="opacity:0.994" fill="#3979ff" d="M 322.5,95.5 C 330.833,95.5 339.167,95.5 347.5,95.5C 347.5,122.167 347.5,148.833 347.5,175.5C 338.86,176.826 330.527,179.159 322.5,182.5C 322.5,153.5 322.5,124.5 322.5,95.5 Z"/></g>
<g><path style="opacity:0.989" fill="#3e73ff" d="M 347.5,95.5 C 357.833,95.5 368.167,95.5 378.5,95.5C 377.081,96.4511 375.415,96.7845 373.5,96.5C 373.5,122.5 373.5,148.5 373.5,174.5C 364.805,174.327 356.138,174.66 347.5,175.5C 347.5,148.833 347.5,122.167 347.5,95.5 Z"/></g>
<g><path style="opacity:0.994" fill="#436dff" d="M 378.5,95.5 C 385.5,95.5 392.5,95.5 399.5,95.5C 399.5,123.167 399.5,150.833 399.5,178.5C 390.868,176.95 382.202,175.617 373.5,174.5C 373.5,148.5 373.5,122.5 373.5,96.5C 375.415,96.7845 377.081,96.4511 378.5,95.5 Z"/></g>
<g><path style="opacity:0.976" fill="#4867ff" d="M 399.5,95.5 C 412.109,98.2759 419.943,105.943 423,118.5C 423.833,141.507 423.666,164.507 422.5,187.5C 414.813,184.276 407.146,181.276 399.5,178.5C 399.5,150.833 399.5,123.167 399.5,95.5 Z"/></g>
<g><path style="opacity:0.983" fill="#06b8ff" d="M 76.5,107.5 C 76.5,116.167 76.5,124.833 76.5,133.5C 78.099,133.232 79.4324,133.566 80.5,134.5C 70.143,134.328 59.8097,134.661 49.5,135.5C 49.0619,127.057 49.5619,118.723 51,110.5C 51.8333,109.667 52.6667,108.833 53.5,108C 61.1594,107.5 68.8261,107.334 76.5,107.5 Z"/></g>
<g><path style="opacity:0.991" fill="#0bb2ff" d="M 76.5,107.5 C 86.5,107.5 96.5,107.5 106.5,107.5C 106.5,116.167 106.5,124.833 106.5,133.5C 108.415,133.216 110.081,133.549 111.5,134.5C 101.167,134.5 90.8333,134.5 80.5,134.5C 79.4324,133.566 78.099,133.232 76.5,133.5C 76.5,124.833 76.5,116.167 76.5,107.5 Z"/></g>
<g><path style="opacity:0.994" fill="#10abff" d="M 106.5,107.5 C 115.167,107.5 123.833,107.5 132.5,107.5C 132.5,116.5 132.5,125.5 132.5,134.5C 125.5,134.5 118.5,134.5 111.5,134.5C 110.081,133.549 108.415,133.216 106.5,133.5C 106.5,124.833 106.5,116.167 106.5,107.5 Z"/></g>
<g><path style="opacity:0.994" fill="#15a5ff" d="M 132.5,107.5 C 141.167,107.5 149.833,107.5 158.5,107.5C 158.5,116.5 158.5,125.5 158.5,134.5C 149.833,134.5 141.167,134.5 132.5,134.5C 132.5,125.5 132.5,116.5 132.5,107.5 Z"/></g>
<g><path style="opacity:0.997" fill="#1a9fff" d="M 158.5,107.5 C 167.167,107.5 175.833,107.5 184.5,107.5C 184.5,116.5 184.5,125.5 184.5,134.5C 175.833,134.5 167.167,134.5 158.5,134.5C 158.5,125.5 158.5,116.5 158.5,107.5 Z"/></g>
<g><path style="opacity:1" fill="#2098ff" d="M 184.5,107.5 C 194.5,107.5 204.5,107.5 214.5,107.5C 214.5,116.5 214.5,125.5 214.5,134.5C 204.5,134.5 194.5,134.5 184.5,134.5C 184.5,125.5 184.5,116.5 184.5,107.5 Z"/></g>
<g><path style="opacity:0.978" fill="#288fff" d="M 214.5,107.5 C 233.836,107.333 253.17,107.5 272.5,108C 263.5,117 254.5,126 245.5,135C 235.09,135.808 224.757,135.641 214.5,134.5C 214.5,125.5 214.5,116.5 214.5,107.5 Z"/></g>
<g><path style="opacity:0.992" fill="#2f86ff" d="M 290.5,110.5 C 291.167,139.833 291.833,169.167 292.5,198.5C 283.2,206.133 274.533,214.466 266.5,223.5C 266.825,194.093 266.491,164.76 265.5,135.5C 273.5,126.833 281.833,118.5 290.5,110.5 Z"/></g>
<g><path style="opacity:0.99" fill="#2a8cff" d="M 265.5,135.5 C 266.491,164.76 266.825,194.093 266.5,223.5C 254.677,240.153 246.344,258.486 241.5,278.5C 240.501,236.003 240.168,193.337 240.5,150.5C 244.247,150.608 247.914,150.108 251.5,149C 256.696,144.969 261.363,140.469 265.5,135.5 Z"/></g>
<g><path style="opacity:0.998" fill="#05b9ff" d="M 65.5,149.5 C 65.5,235.833 65.5,322.167 65.5,408.5C 60.737,408.774 56.0704,408.441 51.5,407.5C 50.5029,322.237 50.1696,236.904 50.5,151.5C 55.3026,149.758 60.3026,149.091 65.5,149.5 Z"/></g>
<g><path style="opacity:0.998" fill="#07b6ff" d="M 65.5,149.5 C 69.1667,149.5 72.8333,149.5 76.5,149.5C 76.5,235.833 76.5,322.167 76.5,408.5C 72.8333,408.5 69.1667,408.5 65.5,408.5C 65.5,322.167 65.5,235.833 65.5,149.5 Z"/></g>
<g><path style="opacity:0.996" fill="#0ab3ff" d="M 76.5,149.5 C 85.1667,149.5 93.8333,149.5 102.5,149.5C 101.081,150.451 99.4147,150.784 97.5,150.5C 97.5,236.5 97.5,322.5 97.5,408.5C 90.5,408.5 83.5,408.5 76.5,408.5C 76.5,322.167 76.5,235.833 76.5,149.5 Z"/></g>
<g><path style="opacity:0.999" fill="#0dafff" d="M 102.5,149.5 C 103.833,149.5 105.167,149.5 106.5,149.5C 106.5,235.833 106.5,322.167 106.5,408.5C 103.5,408.5 100.5,408.5 97.5,408.5C 97.5,322.5 97.5,236.5 97.5,150.5C 99.4147,150.784 101.081,150.451 102.5,149.5 Z"/></g>
<g><path style="opacity:0.998" fill="#10abff" d="M 106.5,149.5 C 116.5,149.5 126.5,149.5 136.5,149.5C 135.432,150.434 134.099,150.768 132.5,150.5C 132.5,236.5 132.5,322.5 132.5,408.5C 123.833,408.5 115.167,408.5 106.5,408.5C 106.5,322.167 106.5,235.833 106.5,149.5 Z"/></g>
<g><path style="opacity:0.997" fill="#15a5ff" d="M 136.5,149.5 C 145.167,149.5 153.833,149.5 162.5,149.5C 161.432,150.434 160.099,150.768 158.5,150.5C 158.5,236.5 158.5,322.5 158.5,408.5C 165.5,408.5 172.5,408.5 179.5,408.5C 179.5,408.833 179.5,409.167 179.5,409.5C 163.825,409.489 148.158,409.156 132.5,408.5C 132.5,322.5 132.5,236.5 132.5,150.5C 134.099,150.768 135.432,150.434 136.5,149.5 Z"/></g>
<g><path style="opacity:0.993" fill="#1e9aff" d="M 179.5,149.5 C 185.5,149.833 191.5,150.167 197.5,150.5C 197.83,236.904 197.497,323.237 196.5,409.5C 190.833,409.5 185.167,409.5 179.5,409.5C 179.5,409.167 179.5,408.833 179.5,408.5C 181.167,408.5 182.833,408.5 184.5,408.5C 184.5,322.5 184.5,236.5 184.5,150.5C 182.585,150.784 180.919,150.451 179.5,149.5 Z"/></g>
<g><path style="opacity:1" fill="#1a9fff" d="M 162.5,149.5 C 168.167,149.5 173.833,149.5 179.5,149.5C 180.919,150.451 182.585,150.784 184.5,150.5C 184.5,236.5 184.5,322.5 184.5,408.5C 182.833,408.5 181.167,408.5 179.5,408.5C 172.5,408.5 165.5,408.5 158.5,408.5C 158.5,322.5 158.5,236.5 158.5,150.5C 160.099,150.768 161.432,150.434 162.5,149.5 Z"/></g>
<g><path style="opacity:1" fill="#2197ff" d="M 197.5,150.5 C 203.167,150.5 208.833,150.5 214.5,150.5C 214.5,236.5 214.5,322.5 214.5,408.5C 218.833,408.5 223.167,408.5 227.5,408.5C 227.5,408.833 227.5,409.167 227.5,409.5C 217.167,409.5 206.833,409.5 196.5,409.5C 197.497,323.237 197.83,236.904 197.5,150.5 Z"/></g>
<g><path style="opacity:1" fill="#2493ff" d="M 214.5,150.5 C 217.5,150.5 220.5,150.5 223.5,150.5C 224.919,151.451 226.585,151.784 228.5,151.5C 228.833,237.335 228.499,323.002 227.5,408.5C 223.167,408.5 218.833,408.5 214.5,408.5C 214.5,322.5 214.5,236.5 214.5,150.5 Z"/></g>
<g><path style="opacity:0.995" fill="#2790ff" d="M 223.5,150.5 C 229.167,150.5 234.833,150.5 240.5,150.5C 240.168,193.337 240.501,236.003 241.5,278.5C 234.712,313.673 241.379,346.007 261.5,375.5C 260.505,386.321 260.172,397.321 260.5,408.5C 258.585,408.216 256.919,408.549 255.5,409.5C 246.167,409.5 236.833,409.5 227.5,409.5C 227.5,409.167 227.5,408.833 227.5,408.5C 228.499,323.002 228.833,237.335 228.5,151.5C 226.585,151.784 224.919,151.451 223.5,150.5 Z"/></g>
<g><path style="opacity:0.978" fill="#01bdff" d="M 50.5,151.5 C 50.1696,236.904 50.5029,322.237 51.5,407.5C 39.5044,403.998 32.6711,395.998 31,383.5C 31.1555,313.836 31.4889,244.17 32,174.5C 33.9722,163.37 40.1388,155.704 50.5,151.5 Z"/></g>
<g><path style="opacity:0.976" fill="#3e73ff" d="M 373.5,189.5 C 373.5,203.5 373.5,217.5 373.5,231.5C 360.046,228.593 351.713,233.927 348.5,247.5C 347.503,229.341 347.17,211.008 347.5,192.5C 346.5,192.5 345.5,192.5 344.5,192.5C 353.876,190.054 363.543,189.054 373.5,189.5 Z"/></g>
<g><path style="opacity:0.981" fill="#436dff" d="M 373.5,189.5 C 382.535,189.908 391.202,191.575 399.5,194.5C 399.5,219.833 399.5,245.167 399.5,270.5C 401.099,270.232 402.432,270.566 403.5,271.5C 400.102,271.82 396.768,271.487 393.5,270.5C 389.901,260.204 386.401,249.87 383,239.5C 380.716,235.776 377.549,233.109 373.5,231.5C 373.5,217.5 373.5,203.5 373.5,189.5 Z"/></g>
<g><path style="opacity:0.987" fill="#3979ff" d="M 344.5,192.5 C 345.5,192.5 346.5,192.5 347.5,192.5C 347.17,211.008 347.503,229.341 348.5,247.5C 345.709,255.04 343.209,262.706 341,270.5C 336.263,271.469 331.43,271.803 326.5,271.5C 325.432,270.566 324.099,270.232 322.5,270.5C 322.823,246.759 322.489,223.092 321.5,199.5C 328.846,196.163 336.513,193.83 344.5,192.5 Z"/></g>
<g><path style="opacity:0.99" fill="#4867ff" d="M 399.5,194.5 C 408.509,196.842 416.842,200.509 424.5,205.5C 424.528,227.682 424.195,249.682 423.5,271.5C 416.833,271.5 410.167,271.5 403.5,271.5C 402.432,270.566 401.099,270.232 399.5,270.5C 399.5,245.167 399.5,219.833 399.5,194.5 Z"/></g>
<g><path style="opacity:0.986" fill="#3480ff" d="M 321.5,199.5 C 322.489,223.092 322.823,246.759 322.5,270.5C 324.099,270.232 325.432,270.566 326.5,271.5C 318.747,271.104 311.08,271.604 303.5,273C 297.493,275.833 293.493,280.333 291.5,286.5C 291.831,264.327 291.497,242.327 290.5,220.5C 299.585,211.781 309.918,204.781 321.5,199.5 Z"/></g>
<g><path style="opacity:0.989" fill="#4d60ff" d="M 424.5,205.5 C 437.315,212.311 447.982,221.645 456.5,233.5C 455.501,279.664 455.168,325.997 455.5,372.5C 448.72,382.068 440.387,390.068 430.5,396.5C 429.833,367.5 429.167,338.5 428.5,309.5C 432.208,306.873 435.708,303.873 439,300.5C 444.563,290.781 443.063,282.281 434.5,275C 431.107,272.924 427.44,271.758 423.5,271.5C 424.195,249.682 424.528,227.682 424.5,205.5 Z"/></g>
<g><path style="opacity:0.992" fill="#2f86ff" d="M 290.5,220.5 C 291.497,242.327 291.831,264.327 291.5,286.5C 291.5,288.833 291.5,291.167 291.5,293.5C 291.831,324.338 291.498,355.005 290.5,385.5C 279.992,376.154 271.659,365.154 265.5,352.5C 266.833,319.167 266.833,285.833 265.5,252.5C 271.573,240.09 279.907,229.424 290.5,220.5 Z"/></g>
<g><path style="opacity:0.976" fill="#525aff" d="M 456.5,233.5 C 476.656,259.795 483.822,289.462 478,322.5C 474.619,341.194 467.119,357.86 455.5,372.5C 455.168,325.997 455.501,279.664 456.5,233.5 Z"/></g>
<g><path style="opacity:0.986" fill="#2c8aff" d="M 265.5,252.5 C 266.833,285.833 266.833,319.167 265.5,352.5C 249.515,319.135 249.515,285.802 265.5,252.5 Z"/></g>
<g><path style="opacity:0.988" fill="#426eff" d="M 373.5,259.5 C 375.875,265.773 378.375,272.107 381,278.5C 383.855,282.211 387.355,284.877 391.5,286.5C 392.489,308.758 392.822,331.092 392.5,353.5C 386.303,348.907 379.97,344.573 373.5,340.5C 373.5,313.5 373.5,286.5 373.5,259.5 Z"/></g>
<g><path style="opacity:0.987" fill="#3e73ff" d="M 373.5,259.5 C 373.5,286.5 373.5,313.5 373.5,340.5C 370.201,339.624 366.868,339.457 363.5,340C 358.18,342.325 353.18,345.158 348.5,348.5C 347.503,327.34 347.169,306.007 347.5,284.5C 350.697,281.811 353.197,278.477 355,274.5C 358.068,265.13 361.235,255.796 364.5,246.5C 366.353,245.24 368.186,245.24 370,246.5C 371.638,250.722 372.805,255.055 373.5,259.5 Z"/></g>
<g><path style="opacity:0.971" fill="#3a78ff" d="M 347.5,284.5 C 347.169,306.007 347.503,327.34 348.5,348.5C 343.685,352.47 338.685,356.303 333.5,360C 329.333,361.167 327.833,359.667 329,355.5C 332,345.833 335,336.167 338,326.5C 338.583,318.828 335.749,312.662 329.5,308C 322.833,303.333 316.167,298.667 309.5,294C 306.638,292.214 305.972,289.881 307.5,287C 319.167,286.667 330.833,286.333 342.5,286C 344.154,285.392 345.821,284.892 347.5,284.5 Z"/></g>
<g><path style="opacity:0.971" fill="#466aff" d="M 391.5,286.5 C 403.171,286.333 414.838,286.5 426.5,287C 428.028,289.881 427.362,292.214 424.5,294C 417.324,298.755 410.324,303.755 403.5,309C 399.165,312.503 396.498,317.003 395.5,322.5C 397.952,333.358 401.118,344.024 405,354.5C 406.583,359.1 405.083,360.934 400.5,360C 397.645,357.969 394.978,355.803 392.5,353.5C 392.822,331.092 392.489,308.758 391.5,286.5 Z"/></g>
<g><path style="opacity:0.98" fill="#3480ff" d="M 291.5,293.5 C 292.929,297.502 295.262,301.002 298.5,304C 307.153,309.571 315.32,315.737 323,322.5C 319.76,334.066 316.594,345.733 313.5,357.5C 313.622,360.698 314.455,363.698 316,366.5C 318.033,369.03 320.2,371.363 322.5,373.5C 322.828,384.346 322.494,395.013 321.5,405.5C 309.672,401.09 299.339,394.423 290.5,385.5C 291.498,355.005 291.831,324.338 291.5,293.5 Z"/></g>
<g><path style="opacity:0.968" fill="#4966ff" d="M 428.5,309.5 C 429.167,338.5 429.833,367.5 430.5,396.5C 421.572,403.264 411.572,407.931 400.5,410.5C 399.505,399.012 399.172,387.345 399.5,375.5C 413.988,374.518 420.821,366.851 420,352.5C 416.731,342.859 413.564,333.192 410.5,323.5C 415.768,317.869 421.768,313.203 428.5,309.5 Z"/></g>
<g><path style="opacity:0.989" fill="#436dff" d="M 373.5,358.5 C 381.67,365.018 390.337,370.684 399.5,375.5C 399.172,387.345 399.505,399.012 400.5,410.5C 391.878,413.543 382.878,415.21 373.5,415.5C 373.5,396.5 373.5,377.5 373.5,358.5 Z"/></g>
<g><path style="opacity:0.988" fill="#3e74ff" d="M 373.5,358.5 C 373.5,377.5 373.5,396.5 373.5,415.5C 364.6,415.912 355.933,415.246 347.5,413.5C 347.5,398.5 347.5,383.5 347.5,368.5C 353.253,363.777 359.253,359.277 365.5,355C 368.725,354.777 371.391,355.943 373.5,358.5 Z"/></g>
<g><path style="opacity:0.982" fill="#3979ff" d="M 347.5,368.5 C 347.5,383.5 347.5,398.5 347.5,413.5C 338.186,412.615 329.519,409.949 321.5,405.5C 322.494,395.013 322.828,384.346 322.5,373.5C 326.389,374.965 330.389,375.465 334.5,375C 339.172,373.491 343.505,371.324 347.5,368.5 Z"/></g>
<g><path style="opacity:0.938" fill="#2d88ff" d="M 261.5,375.5 C 265.426,380.602 269.592,385.602 274,390.5C 280.711,396.715 287.544,402.715 294.5,408.5C 281.517,409.499 268.517,409.832 255.5,409.5C 256.919,408.549 258.585,408.216 260.5,408.5C 260.172,397.321 260.505,386.321 261.5,375.5 Z"/></g>
</svg>
